<svg width="24" height="18" viewBox="0 0 24 18" fill="none" xmlns="http://www.w3.org/2000/svg">
<path fill-rule="evenodd" clip-rule="evenodd" d="M5.38295 17.9986H1.27114C0.959455 18.0186 0.268958 17.8304 0.000431459 16.9172C-0.018749 15.9657 0.603473 12.6759 1.48692 11.2101C2.62816 9.3165 2.99338 8.21832 3.03334 7.90593C2.92785 6.18537 1.78262 5.50692 1.22319 5.38276V1.15345C1.22319 0.692069 1.55884 0.600755 1.72667 0.61277H3.02136V0H4.24411L4.81953 0.61277H9.62663V1.89838C9.62663 2.32132 9.96229 2.41103 10.1301 2.40302C11.0532 2.40702 12.9856 2.41263 13.3309 2.40302C13.6761 2.39341 13.7944 2.03055 13.8104 1.85032V0.61277H21.015V0H22.2258L22.7892 0.61277H24V4.92619C23.9616 5.32989 23.6883 5.40679 23.5565 5.39478H22.8612C22.8899 5.83693 22.4496 6.01956 22.2258 6.05561H15.4287L14.4218 9.38379L15.0092 9.88842C15.0763 10.2729 14.8773 10.6173 14.7694 10.7415H9.43483C8.43744 10.6165 8.0842 11.3463 8.03226 11.7267L6.84546 16.4847C6.63448 17.6382 5.78255 17.9746 5.38295 17.9986ZM13.199 9.62409C13.239 9.19555 13.4172 8.08375 13.8104 7.06487C13.7624 6.72845 13.4771 6.05561 12.7195 6.05561H11.281C11.2889 6.6043 11.4943 7.74253 12.252 7.90593C12.7195 8.00677 12.9353 9.01132 11.9163 9.01132C11.281 9.01132 10.0654 7.83624 10.1421 6.11568C9.87439 6.1317 9.27899 6.43048 9.03924 7.49742V8.63885C9.07919 9.04736 9.38688 9.62409 9.97428 9.62409H13.199Z" fill="currentColor"/>
</svg>
