<svg width="22" height="24" viewBox="0 0 22 24" fill="none" xmlns="http://www.w3.org/2000/svg">
<path d="M12.0749 16.364L8.89438 13.199C8.6682 12.974 8.84761 12.6676 8.96558 12.5426L21.7115 0C22.9837 4.59505 19.7415 9.41673 17.9613 11.2532C16.3315 12.863 13.0006 16.1389 12.7158 16.364C12.4309 16.5891 12.1699 16.4578 12.0749 16.364Z" fill="currentColor"/>
<path d="M7.85002 14.0665C7.7171 13.9352 7.71552 13.8086 7.73134 13.7617C5.46856 15.9889 0.814821 20.5746 0.302138 21.0997C-0.314983 21.5452 -0.030158 23.7958 1.56011 23.9833C3.87669 24.1897 3.99695 22.4282 3.76751 21.5217L3.79124 21.4983C3.79124 21.0763 4.16092 20.7398 4.40838 20.6543C5.3578 20.3261 6.92434 19.4117 7.61266 18.7787L10.0811 16.2702L7.85002 14.0665Z" fill="currentColor"/>
</svg>
