<svg width="191" height="307" viewBox="0 0 191 307" fill="none" xmlns="http://www.w3.org/2000/svg">
<path d="M167.052 22.8333L191.052 15.3333V68L167.052 86.5L138.5 90.5L115.052 35.3333L126.052 33.8333C128.136 30.5306 126.552 25.3333 124.552 24.3333C121.552 21.8333 106.052 23.3333 100.052 22.8333C84.5524 19.3333 91.5524 5.33334 100.052 2.33333C108.552 -0.666668 128.552 2.33333 128.552 2.33333C148.152 3.93333 162.386 16.6667 167.052 22.8333Z" fill="black"/>
<path d="M167.052 22.8333L191.052 15.3333V68L167.052 86.5L138.5 90.5L115.052 35.3333C115.052 35.3333 121.757 34.4191 126.052 33.8333M167.052 22.8333C162.386 16.6667 148.152 3.93333 128.552 2.33333C128.552 2.33333 108.552 -0.666668 100.052 2.33333C91.5524 5.33334 84.5524 19.3333 100.052 22.8333C106.052 23.3333 121.552 21.8333 124.552 24.3333C126.552 25.3333 128.136 30.5306 126.052 33.8333M167.052 22.8333C169.552 26.8333 174.952 36.3333 176.552 42.3333M126.052 33.8333C126.052 34.8333 126.052 37.8333 126.552 39.3333C127.052 40.8333 134.052 54.7333 152.052 58.3333" stroke="white"/>
<path d="M112.946 29.5894C117.98 28.6417 122.539 33.5574 124.19 36.1337L146.793 116.105L154.706 139.565L124.746 147.986L95.2916 46.8181C91.0446 37.7647 95.6868 34.0038 98.5388 33.2551L112.946 29.5894Z" fill="#71420C" stroke="#986120"/>
<path d="M169.347 135.458L122.717 148.606L171.361 305.279C195.517 262.401 194.141 226.22 191.554 204.459C190.934 202.43 180.568 169.737 180.568 169.737L169.347 135.458Z" fill="#626262" stroke="#898989"/>
<path d="M170.424 300.316C170.998 301.689 171.309 304.868 171.361 305.279L172.769 302.63C173.155 301.903 173.991 300.248 174.412 299.54C174.991 298.566 175.546 297.039 176.079 296.037C177.109 294.1 177.869 292.515 178.665 290.475C179.433 288.508 180.199 286.76 181.155 284.857C181.502 284.167 181.701 283.421 182.052 282.732C182.252 282.341 183.767 278.952 183.885 278.527C184.652 275.757 183.678 275.892 184.339 273.097C184.728 271.451 185.142 269.777 185.436 268.112C185.782 266.148 186.031 264.1 186.582 262.182C186.928 260.974 187.483 259.809 187.883 258.614C188.208 257.641 188.483 256.653 188.947 255.735C189.531 254.579 190.055 253.384 190.271 252.101C190.414 251.249 190.424 250.414 190.496 249.56C190.538 249.056 190.736 248.579 190.799 248.076C191.029 246.242 191.184 244.433 191.498 242.608C191.809 240.806 192.345 239.026 192.556 237.208C192.822 234.927 192.717 232.668 192.712 230.377C192.709 229.122 192.567 227.946 192.472 226.701C192.395 225.7 192.132 224.714 192.106 223.71C192.085 222.871 192.099 221.884 192.194 221.05C192.305 220.072 192.215 219.164 192.26 218.185C192.311 217.067 191.902 215.819 190.86 215.265C190.149 214.887 188.246 213.875 187.771 212.64C187.295 211.405 187.729 209.786 184.971 208.32C182.649 207.086 181.284 211.746 180.166 211.755C178.6 211.768 178.079 215.462 177.446 216.653C176.678 218.097 175.999 219.592 175.228 221.042C174.411 222.581 173.711 224.268 172.613 225.621C171.668 226.786 170.943 228.093 169.905 229.179C169.414 229.693 169.08 230.276 168.538 230.777C167.289 231.928 166.094 233.153 164.812 234.266C163.815 235.131 162.45 235.273 161.489 236.132C160.904 236.654 160.312 237.203 159.703 237.701C159.149 238.153 158.39 238.685 158.054 239.317C156.973 241.35 157.641 241.579 156.56 243.613C155.464 245.674 156.515 246.982 156.771 249.389C157.007 251.603 156.614 253.866 157.385 255.944C159.565 258.235 158.368 259.712 159.481 261.588C160.257 262.897 160.699 267.07 161.548 268.35C162.726 270.125 161.459 272.01 161.928 274.065C162.603 277.021 164.728 280.053 165.201 283.047C165.447 284.6 165.702 286.151 165.985 287.698C166.214 288.951 169.938 299.156 170.424 300.316Z" fill="#B60000" stroke="#F70404" stroke-linecap="round"/>
<path d="M114.052 108L135.552 99.5C142.052 90 132.886 84.1667 127.552 85C125.952 71.4 117.886 69.3333 114.052 70C115.052 65.5 112.352 55.5 101.552 55.5C101.552 51.3333 99.4524 42.6 91.0524 41L70.0524 48C65.219 53.5 60.7524 64.5 81.5524 64.5C78.5524 69.1667 75.9524 77.8 93.5524 79C89.1524 92.2 101.052 94.1667 107.552 93.5C103.952 102.3 110.386 106.833 114.052 108Z" fill="black"/>
<path d="M107.552 93.5C103.952 102.3 110.386 106.833 114.052 108L135.552 99.5C142.052 90 132.886 84.1667 127.552 85M107.552 93.5L127.552 85M107.552 93.5C101.052 94.1667 89.1524 92.2 93.5524 79M127.552 85C125.952 71.4 117.886 69.3333 114.052 70M93.5524 79L114.052 70M93.5524 79C75.9524 77.8 78.5524 69.1667 81.5524 64.5M114.052 70C115.052 65.5 112.352 55.5 101.552 55.5M101.552 55.5L81.5524 64.5M101.552 55.5C101.552 51.3333 99.4524 42.6 91.0524 41L70.0524 48C65.219 53.5 60.7524 64.5 81.5524 64.5" stroke="white"/>
</svg>
